<?xml version="1.0" encoding="iso-8859-1"?>
<!-- Generator: Adobe Illustrator 19.0.0, SVG Export Plug-In . SVG Version: 6.00 Build 0)  -->
<svg version="1.1" id="Layer_1" xmlns="http://www.w3.org/2000/svg" xmlns:xlink="http://www.w3.org/1999/xlink" x="0px" y="0px"
	 viewBox="0 0 511.979 511.979" style="enable-background:new 0 0 511.979 511.979;" xml:space="preserve">
<rect x="137.34" y="10.656" style="fill:#434A54;" width="237.32" height="130.67"/>
<g>
	<path style="fill:#656D78;" d="M380,286.661c0,0-19.998-58.669-21.342-60.669s-26.654-43.999-26.654-43.999l-39.342-39.326
		l-61.999-5.344l-17.999,14l-61.326,84.122l-24.671,77.872l20,92.668l37.342,63.998l49.326,31.343h35.999l42.67-16.672
		l39.982-47.342l32.67-89.996L380,286.661z"/>
	<rect x="196.67" y="10.656" style="fill:#656D78;" width="120" height="126.67"/>
</g>
<path style="fill:#AAB2BC;" d="M282.49,461.982l-85.248,3.75v12.655l17.499,12.844c0,0,34.249,10.75,34.999,11s36.5-8,37.75-8.5
	s23.498-15.5,23.498-15.5l2-10.749L282.49,461.982z"/>
<path style="fill:#FFCE54;" d="M282.24,323.488l56.748-7l-2.25-20.499l-13-22.999l-23.998-25.499l-8.25,11.749l-10,19.249l-12.25,20
	l-20.25,1c0,0-5.5-4.5-5.5-5.25s-8-15.75-8.5-16.75s-19-26.749-21.249-28.249c-2.25-1.5-11.25,3-11.25,3l-25.499,26.999
	l-11.5,34.999l31.749,5.094l34.749,3.406l9.75,15.25l-24,51.997l4.75,14.749l59.5-4.999l9.5-13.25l-16-49.247L282.24,323.488z"/>
<path d="M373.547,234.335c-11.045-22.436-26.389-44.686-45.621-66.091c-6.156-6.859-12.281-13.171-18.203-18.905h63.59
	c5.891,0,10.672-4.781,10.672-10.687V10.656C383.985,4.781,379.204,0,373.313,0H138.667c-5.891,0-10.671,4.781-10.671,10.656
	v127.995c0,5.906,4.781,10.687,10.671,10.687h63.591c-5.921,5.734-12.062,12.046-18.203,18.905
	c-19.234,21.406-34.577,43.655-45.639,66.091c-13.984,28.421-21.093,57.248-21.093,85.653c0,49.655,14.937,97.434,42.062,134.51
	c26.717,36.53,61.935,57.482,96.605,57.482c34.671,0,69.888-20.952,96.605-57.482c27.123-37.076,42.061-84.854,42.061-134.51
	C394.656,291.583,387.547,262.756,373.547,234.335z M202.664,127.995V21.343h106.652v106.652H202.664z M362.658,127.995H330.66
	V21.343h31.998V127.995z M149.323,21.343h31.999v106.652h-31.999L149.323,21.343L149.323,21.343z M208.758,474.201
	c11.968-2.594,28.342-4.875,47.232-4.875c18.734,0,35.171,2.25,47.312,4.812c-15.219,10.718-31.453,16.499-47.312,16.499
	C240.163,490.637,223.96,484.887,208.758,474.201z M335.379,441.904c-4.016,5.484-8.234,10.562-12.609,15.203
	c-11.016-3.344-34.764-9.125-66.779-9.125c-32.452,0-56.014,5.938-66.638,9.281c-4.422-4.688-8.687-9.812-12.75-15.359
	c-24.468-33.451-37.936-76.745-37.936-121.916c0-25.03,6.312-50.592,18.765-75.966c10.124-20.64,24.311-41.217,42.154-61.154
	c11.984-13.39,24.046-24.702,34.311-33.53h44.187c10.172,8.719,22.078,19.905,33.967,33.155
	c17.922,19.968,32.186,40.577,42.357,61.264c12.547,25.468,18.904,51.107,18.904,76.231
	C373.312,365.159,359.845,408.453,335.379,441.904z"/>
<path d="M304.021,236.882c-2.453-1.422-5.375-1.797-8.109-1.078s-5.062,2.516-6.484,4.969l-27.578,47.764
	c-1.906-0.359-3.859-0.547-5.859-0.547c-2,0-3.953,0.188-5.859,0.547l-27.577-47.764c-1.422-2.453-3.75-4.25-6.484-4.969
	c-2.734-0.734-5.655-0.344-8.108,1.078c-29.546,17.14-47.92,48.998-47.967,83.122c0,2.828,1.125,5.547,3.125,7.547
	s4.703,3.125,7.546,3.125h55.17c1.328,3.75,3.328,7.156,5.859,10.093l-27.608,47.826c-1.422,2.453-1.797,5.359-1.078,8.094
	c0.734,2.734,2.531,5.062,4.984,6.484c14.53,8.374,31.139,12.812,47.998,12.812s33.468-4.438,48-12.812
	c2.451-1.422,4.248-3.75,4.982-6.484c0.719-2.734,0.344-5.641-1.078-8.094l-27.607-47.826c2.531-2.937,4.531-6.343,5.859-10.093
	h55.168c2.844,0,5.547-1.125,7.547-3.125s3.125-4.719,3.125-7.547C351.939,285.88,333.566,254.022,304.021,236.882z
	 M266.662,319.988c0,5.875-4.797,10.656-10.671,10.656c-5.875,0-10.671-4.781-10.671-10.656s4.796-10.656,10.671-10.656
	C261.865,309.332,266.662,314.113,266.662,319.988z M209.805,261.365l21.858,37.874c-2.531,2.938-4.531,6.375-5.843,10.124h-43.702
	C184.884,290.473,194.837,273.24,209.805,261.365z M255.99,394.641c-9.531,0-18.953-1.812-27.718-5.281l21.89-37.904
	c1.891,0.344,3.844,0.531,5.828,0.531c1.984,0,3.937-0.188,5.828-0.531l21.891,37.904
	C274.943,392.829,265.521,394.641,255.99,394.641z M286.162,309.363c-1.312-3.749-3.312-7.187-5.844-10.124l21.844-37.874
	c14.982,11.875,24.936,29.108,27.701,47.998H286.162z"/>
<g>
</g>
<g>
</g>
<g>
</g>
<g>
</g>
<g>
</g>
<g>
</g>
<g>
</g>
<g>
</g>
<g>
</g>
<g>
</g>
<g>
</g>
<g>
</g>
<g>
</g>
<g>
</g>
<g>
</g>
</svg>
