<?xml version="1.0" encoding="iso-8859-1"?>
<!-- Generator: Adobe Illustrator 19.0.0, SVG Export Plug-In . SVG Version: 6.00 Build 0)  -->
<svg version="1.1" id="Layer_1" xmlns="http://www.w3.org/2000/svg" xmlns:xlink="http://www.w3.org/1999/xlink" x="0px" y="0px"
	 viewBox="0 0 512 512" style="enable-background:new 0 0 512 512;" xml:space="preserve">
<path style="fill:#F28544;" d="M395.386,158.246c-2.754-0.254-5.246-1.772-6.728-4.105c-8.886-13.939-28.86-23.035-50.886-23.184
	c-3.149-0.018-6.053-1.684-7.658-4.395C316.851,104.246,286,89.825,251.526,89.825c-38.272,0-72.009,18-82.044,43.772
	c-1.553,3.991-5.763,6.281-9.921,5.597c-6.746-1.193-13.719-1.79-20.737-1.79c-46.833,0-84.93,26.456-84.93,58.982
	c0,29.21,31.421,54.325,73.097,58.403c4.518,0.439,7.991,4.184,8.105,8.719c0.421,17.447,21.886,31.64,47.851,31.64
	c6.702,0,13.202-0.939,19.325-2.781c2.465-0.763,5.114-0.395,7.298,0.947c2.193,1.342,3.693,3.561,4.14,6.088l26.561,150.158h16.298
	l29.228-158.57c0.544-2.93,2.5-5.395,5.219-6.596c2.728-1.175,5.868-0.965,8.395,0.623c10.395,6.535,23.825,10.132,37.807,10.132
	c26.816,0,50.535-13.597,55.158-31.632c0.903-3.526,3.86-6.158,7.465-6.658c33.79-4.693,58.307-25.324,58.307-49.044
	C458.149,182.921,431.167,161.614,395.386,158.246z M413.193,233.544c0,4.965-4.018,8.982-8.982,8.982h-17.965
	c-4.965,0-8.982-4.018-8.982-8.982v-17.965c0-4.965,4.018-8.982,8.982-8.982h17.965c4.965,0,8.982,4.018,8.982,8.982V233.544z"/>
<path style="fill:#FFFFFF;" d="M98.789,467.246c2.667,9.14,57.456,26.79,152.719,26.79s150.053-17.649,152.719-27.105
	c-2.144-7.312-43.026-23.391-127.739-26.343l-3.612,19.588c-0.79,4.254-4.5,7.351-8.833,7.351h-31.307
	c-4.36,0-8.088-3.132-8.842-7.421l-3.411-19.285C139.775,444.352,100.831,459.986,98.789,467.246z"/>
<g>
	<path style="fill:#314E55;" d="M401.254,140.833c-12.193-16.035-33.886-26.316-58.43-27.684
		c-17.561-25.237-52.728-41.289-91.298-41.289c-42.351,0-80.474,19.667-95.754,48.605c-5.579-0.684-11.254-1.026-16.947-1.026
		c-56.737,0-102.895,34.518-102.895,76.947c0,36.684,34.851,68.184,82.176,75.395c5.368,23.719,32.114,41.333,64.842,41.333
		c5,0,9.921-0.421,14.728-1.246l19.651,111.103c1.292-0.062,2.522-0.117,3.647-0.164c4.886-0.395,9.14,3.64,9.351,8.596
		c0.211,4.956-3.64,9.14-8.596,9.351c-0.429,0.018-0.818,0.047-1.245,0.066l3.411,19.285c0.754,4.29,4.482,7.421,8.842,7.421h31.307
		c4.333,0,8.044-3.096,8.833-7.351l3.612-19.588c-0.548-0.019-1.051-0.051-1.603-0.07c-4.965-0.158-8.851-4.307-8.684-9.263
		c0.158-4.86,4.14-8.693,8.965-8.693c0.105,0,0.202,0,0.298,0.009c1.194,0.039,2.684,0.094,4.316,0.161l21.5-116.608
		c10.904,4.553,23.289,6.991,35.939,6.991c32.684,0,61.246-16.237,70.658-39.368c39.868-7.509,68.237-34.588,68.237-65.93
		C476.114,174.667,444.219,146.421,401.254,140.833z M399.842,256.86c-3.605,0.5-6.561,3.132-7.465,6.658
		c-4.623,18.035-28.342,31.632-55.158,31.632c-13.983,0-27.412-3.597-37.807-10.132c-2.526-1.588-5.667-1.798-8.395-0.623
		c-2.719,1.202-4.675,3.667-5.219,6.596l-29.228,158.57h-16.298l-26.562-150.158c-0.447-2.526-1.947-4.746-4.14-6.088
		c-2.184-1.342-4.833-1.711-7.298-0.947c-6.123,1.842-12.623,2.781-19.325,2.781c-25.965,0-47.43-14.193-47.851-31.64
		c-0.114-4.535-3.588-8.281-8.105-8.719c-41.675-4.079-73.096-29.193-73.096-58.404c0-32.526,38.096-58.982,84.93-58.982
		c7.018,0,13.991,0.596,20.737,1.79c4.158,0.684,8.369-1.605,9.921-5.597c10.035-25.772,43.772-43.772,82.044-43.772
		c34.474,0,65.324,14.421,78.588,36.737c1.605,2.71,4.509,4.377,7.658,4.395c22.026,0.149,42,9.246,50.886,23.184
		c1.483,2.333,3.974,3.851,6.728,4.105c35.781,3.368,62.763,24.675,62.763,49.57C458.149,231.535,433.632,252.167,399.842,256.86z"
		/>
	<path style="fill:#314E55;" d="M275.167,422.561c-4.824,0-8.807,3.833-8.965,8.693c-0.167,4.956,3.719,9.105,8.684,9.263
		c0.552,0.018,1.055,0.051,1.603,0.07c84.713,2.951,125.595,19.03,127.739,26.343c-2.667,9.456-57.456,27.105-152.719,27.105
		s-150.053-17.649-152.719-26.79c2.042-7.26,40.986-22.894,121.694-26.425c0.426-0.019,0.816-0.048,1.245-0.066
		c4.956-0.211,8.807-4.395,8.596-9.351c-0.211-4.956-4.465-8.991-9.351-8.596c-1.125,0.047-2.355,0.103-3.647,0.164
		c-36.457,1.745-136.485,9.705-136.485,44.116c0,35.456,107.281,44.912,170.667,44.912s170.667-9.456,170.667-44.912
		c0-35.981-110.525-43.065-142.394-44.357c-1.633-0.066-3.122-0.122-4.316-0.161C275.368,422.561,275.272,422.561,275.167,422.561z"
		/>
	<path style="fill:#314E55;" d="M386.246,62.877h17.965c4.965,0,8.982-4.018,8.982-8.982V35.93c0-4.965-4.018-8.982-8.982-8.982
		h-17.965c-4.965,0-8.982,4.018-8.982,8.982v17.965C377.263,58.86,381.281,62.877,386.246,62.877z"/>
	<path style="fill:#314E55;" d="M44.912,134.737v-17.965c0-4.965-4.018-8.982-8.982-8.982H17.965c-4.965,0-8.982,4.018-8.982,8.982
		v17.965c0,4.965,4.018,8.982,8.982,8.982H35.93C40.895,143.719,44.912,139.702,44.912,134.737z"/>
	<path style="fill:#314E55;" d="M287.439,35.93h17.965c4.965,0,8.982-4.018,8.982-8.982V8.982c0-4.965-4.018-8.982-8.982-8.982
		h-17.965c-4.965,0-8.982,4.018-8.982,8.982v17.965C278.456,31.912,282.474,35.93,287.439,35.93z"/>
	<path style="fill:#314E55;" d="M107.789,98.807h17.965c4.965,0,8.982-4.018,8.982-8.982V71.86c0-4.965-4.018-8.982-8.982-8.982
		h-17.965c-4.965,0-8.982,4.018-8.982,8.982v17.965C98.807,94.789,102.825,98.807,107.789,98.807z"/>
	<path style="fill:#314E55;" d="M494.035,143.719H476.07c-4.965,0-8.982,4.018-8.982,8.982v17.965c0,4.965,4.018,8.982,8.982,8.982
		h17.965c4.965,0,8.982-4.018,8.982-8.982v-17.965C503.018,147.737,499,143.719,494.035,143.719z"/>
	<path style="fill:#314E55;" d="M404.211,206.596h-17.965c-4.965,0-8.982,4.018-8.982,8.982v17.965c0,4.965,4.018,8.982,8.982,8.982
		h17.965c4.965,0,8.982-4.018,8.982-8.982v-17.965C413.193,210.614,409.175,206.596,404.211,206.596z"/>
	<path style="fill:#314E55;" d="M458.105,431.158H440.14c-4.965,0-8.982,4.018-8.982,8.982v17.965c0,4.965,4.018,8.982,8.982,8.982
		h17.965c4.965,0,8.982-4.018,8.982-8.982V440.14C467.088,435.176,463.07,431.158,458.105,431.158z"/>
</g>
<g>
</g>
<g>
</g>
<g>
</g>
<g>
</g>
<g>
</g>
<g>
</g>
<g>
</g>
<g>
</g>
<g>
</g>
<g>
</g>
<g>
</g>
<g>
</g>
<g>
</g>
<g>
</g>
<g>
</g>
</svg>
