<?xml version="1.0" encoding="iso-8859-1"?>
<!-- Generator: Adobe Illustrator 18.0.0, SVG Export Plug-In . SVG Version: 6.00 Build 0)  -->
<!DOCTYPE svg PUBLIC "-//W3C//DTD SVG 1.1//EN" "http://www.w3.org/Graphics/SVG/1.1/DTD/svg11.dtd">
<svg version="1.1" id="Capa_1" xmlns="http://www.w3.org/2000/svg" xmlns:xlink="http://www.w3.org/1999/xlink" x="0px" y="0px"
	 viewBox="0 0 297.505 297.505" style="enable-background:new 0 0 297.505 297.505;" xml:space="preserve">
<g>
	<g id="XMLID_35_">
		<g>
			<path style="fill:pink" d="M276.655,133.561v33.97c-9.05,4.07-24.31,11.22-29.93,15.51c-29.96,22.89-36.71,50.52-37.96,65.84
				h-17.06v-23.68c0-3.36-1.64-6.5-4.38-8.43c-2.74-1.92-6.25-2.39-9.41-1.26c-48.64,17.52-90.38,0.39-90.77,0.22
				c-3.18-1.36-6.83-1.03-9.72,0.87c-2.89,1.91-4.62,5.14-4.62,8.6v23.68h-17.78c-11.44-20.35-52.08-100.63-14.49-153.63
				c42.95-60.56,157.63-30.31,158.77-30c1.96,0.53,4.04,0.47,5.97-0.17l31.43-10.47l-10.48,31.43c-1.23,3.69-0.27,7.77,2.49,10.53
				l33.97,33.98c1.93,1.93,4.55,3.01,7.28,3.01H276.655z"/>
			<path d="M297.255,123.271v50.96c0,4.1-2.44,7.81-6.19,9.44c-10.84,4.71-27.87,12.7-31.84,15.73c-33.33,25.47-30.15,57.2-30,58.54
				c0.37,2.93-0.53,5.85-2.49,8.07c-1.95,2.22-4.77,3.46-7.73,3.46h-37.6c-5.68,0-10.29-4.61-10.29-10.3v-20.03
				c-32.93,8.5-61.46,4.27-77.72,0.13v19.9c0,5.69-4.61,10.3-10.3,10.3h-33.97c-3.54,0-6.83-1.82-8.71-4.81
				c-0.69-1.09-17.05-27.24-27.54-62.25c-11.48-38.31-11.31-72.4,0.28-99.98c-2.74-1.64-5.48-3.87-7.75-6.91
				c-3.09-4.14-6.29-11.15-4.76-21.61c0.12-0.84,0.28-1.7,0.46-2.59c1.17-5.56,6.63-9.12,12.2-7.95c5.56,1.17,9.12,6.64,7.95,12.19
				c-0.5,2.38-0.8,5.64,0.61,7.58c0.32,0.45,0.74,0.84,1.2,1.18c0.22-0.33,0.44-0.66,0.67-0.98c21.51-30.34,59.97-46.44,111.2-46.56
				c0.2,0,0.4,0,0.59,0c30.87,0,57.26,5.68,66.09,7.82l48.11-16.04c3.7-1.23,7.78-0.27,10.54,2.49c2.75,2.75,3.72,6.83,2.48,10.53
				l-14.97,44.93l26.46,26.46h12.72C292.645,112.971,297.255,117.581,297.255,123.271z M276.655,167.531v-33.97h-6.69
				c-2.73,0-5.35-1.08-7.28-3.01l-33.97-33.98c-2.76-2.76-3.72-6.84-2.49-10.53l10.48-31.43l-31.43,10.47
				c-1.93,0.64-4.01,0.7-5.97,0.17c-1.14-0.31-115.82-30.56-158.77,30c-37.59,53,3.05,133.28,14.49,153.63h17.78v-23.68
				c0-3.46,1.73-6.69,4.62-8.6c2.89-1.9,6.54-2.23,9.72-0.87c0.39,0.17,42.13,17.3,90.77-0.22c3.16-1.13,6.67-0.66,9.41,1.26
				c2.74,1.93,4.38,5.07,4.38,8.43v23.68h17.06c1.25-15.32,8-42.95,37.96-65.84C252.345,178.751,267.605,171.601,276.655,167.531z"
				/>
		</g>
		<g>
		</g>
	</g>
</g>
<path d="M214.375,115.031h-0.01c-4.55,0-8.23,3.69-8.23,8.24c0,4.55,3.69,8.23,8.24,8.23c4.55,0,8.23-3.68,8.23-8.23
	C222.605,118.721,218.925,115.031,214.375,115.031z"/>
<g>
</g>
<g>
</g>
<g>
</g>
<g>
</g>
<g>
</g>
<g>
</g>
<g>
</g>
<g>
</g>
<g>
</g>
<g>
</g>
<g>
</g>
<g>
</g>
<g>
</g>
<g>
</g>
<g>
</g>
</svg>
